<svg width="512" height="512" viewBox="0 0 512 512" fill="none" xmlns="http://www.w3.org/2000/svg">
<rect width="512" height="512" fill="#302F2D"/>
<path d="M247.503 80.215C265.618 80.215 279.043 91.31 279.043 91.31C328.251 120.238 353.523 171.423 366.083 225.73C377.183 273.73 378.55 334.868 356.974 379.617C340.657 413.445 311.836 433.864 278.049 433.864C267.932 433.864 257.375 432.036 246.577 428.191C213.496 416.409 199.288 384.328 206.513 352.435C209.974 337.157 215.985 325.847 222.917 311.47C229.425 297.979 239.839 287.012 244.109 272.22C251.948 245.084 246.019 211.927 229.338 188.785C219.815 175.565 205.171 165.227 199.708 149.355C195.438 136.945 194.138 119.521 198.643 107.336C203.256 94.8633 214.607 85.6831 227.843 82.7545C234.017 81.3875 241.093 80.2201 247.473 80.215C247.483 80.215 247.493 80.215 247.503 80.215ZM247.503 64.855H247.473C240.914 64.8601 233.198 65.838 224.52 67.758C205.965 71.8643 190.528 84.9868 184.236 102.006C177.713 119.649 180.672 141.23 185.183 154.353C189.775 167.706 198.782 177.403 206.728 185.963C210.506 190.034 214.075 193.874 216.871 197.76C230.858 217.165 235.871 245.371 229.348 267.95C227.372 274.801 223.219 281.267 218.821 288.107C215.483 293.304 212.032 298.67 209.078 304.794L206.805 309.483C200.732 321.961 194.998 333.742 191.532 349.041C182.162 390.364 202.683 428.866 241.421 442.66C253.658 447.017 265.976 449.224 278.049 449.224C317.13 449.224 351.803 425.697 370.808 386.289C391.191 344.013 395.021 282.701 381.048 222.274C365.371 154.501 333.98 106.168 287.716 78.5971C283.328 75.2639 267.973 64.855 247.503 64.855Z" fill="#FFFAFA"/>
<path d="M471.251 178.575C471.322 177.838 471.23 176.773 470.524 175.616C468.906 172.969 464.958 171.33 458.123 170.445C453.07 169.789 407.839 164.065 377.15 164.546C359.066 164.833 326.232 169.523 302.255 172.943C299.101 173.394 296.055 173.829 293.198 174.228C293.157 173.665 255.371 173.071 255.335 173.711C252.161 173.179 248.766 172.6 245.249 172.006C220.637 167.823 186.927 162.089 170.481 162.35C144.876 162.754 90.507 166.318 89.9592 166.354L89.8722 166.364C86.5134 166.676 81.5522 169.477 81.6597 175.933L81.9106 192.046L81.931 192.2C82.1973 194.509 84.1275 198.886 89.6622 200.632C92.2478 201.451 93.5483 208.788 94.4085 213.637C94.5877 214.651 94.7618 215.639 94.9461 216.586C95.115 217.482 95.3659 218.854 95.6731 220.6C99.4312 241.613 103.957 263.905 109.057 269.896C109.671 270.623 110.286 271.411 110.936 272.251C116.552 279.48 124.238 289.382 158.516 292.925C163.431 293.437 168.357 293.652 173.154 293.576C203.167 293.099 229.029 281.021 240.651 262.047C252.791 242.232 260.143 219.387 260.45 218.424L260.496 218.25C260.609 217.835 261.239 215.772 263.112 213.816C263.389 214.144 284.417 214.41 284.565 214.251C284.755 214.502 284.857 214.702 284.903 214.784C286.035 217.999 302.122 263.163 319.535 277.867C335.765 291.579 354.822 298.061 377.79 297.697C378.727 297.687 379.649 297.661 380.575 297.62C399.171 296.924 413.958 294.548 430.178 284.877C437.192 280.694 443.249 269.742 448.2 252.324C451.769 239.749 453.428 228.48 453.495 228.009L453.51 227.912L453.52 227.814C454.037 221.67 455.891 210.749 458.691 207.595C461.364 204.585 463.304 203.648 465.189 202.747C466.208 202.255 467.262 201.748 468.348 200.975C469.464 200.176 472.428 198.057 471.251 178.575Z" fill="#FFFAFA"/>
<path d="M225.282 147.84C222.497 147.84 219.809 146.32 218.447 143.678C209.379 126.08 198.141 116.117 185.034 114.053C160.852 110.259 137.49 133.207 137.254 133.443C134.249 136.433 129.39 136.428 126.389 133.422C123.399 130.417 123.404 125.553 126.41 122.558C127.588 121.385 155.609 93.8754 187.41 98.8828C205.632 101.745 220.664 114.448 232.097 136.643C234.037 140.411 232.558 145.045 228.789 146.99C227.668 147.569 226.465 147.84 225.282 147.84Z" fill="#FFFAFA"/>
<path d="M405.114 138.24C403.317 138.24 401.515 137.61 400.055 136.335C393.712 131.277 342.338 121.861 326.225 133.437C322.79 135.915 317.992 135.132 315.509 131.681C313.036 128.241 313.819 123.438 317.265 120.965C340.07 104.586 399.415 115.343 410.183 124.79C413.367 127.585 413.69 132.439 410.895 135.629C409.374 137.354 407.249 138.24 405.114 138.24Z" fill="#FFFAFA"/>
</svg>
